<svg width="50" height="70" viewBox="0 0 50 70" xmlns="http://www.w3.org/2000/svg">
<path d="M50 13.684L45.4451 64.0313L24.9695 69.632L4.55032 64.0392L0 13.684H50Z" fill="#264DE4"/>
<path d="M41.5452 60.8254L45.4377 17.8014H25V65.3511L41.5452 60.8254Z" fill="#2965F1"/>
<path d="M10.4301 36.4777L10.9911 42.6536H24.9985V36.4777H10.4301Z" fill="#EBEBEB"/>
<path d="M25.0001 23.9769H24.9785H9.30435L9.87335 30.1529H25.0001V23.9769Z" fill="#EBEBEB"/>
<path d="M24.9988 58.9427V52.5173L24.9712 52.5245L18.0001 50.6671L17.5545 45.7416H14.167H11.2709L12.1479 55.4386L24.9701 58.9506L24.9988 58.9427Z" fill="#EBEBEB"/>
<path d="M11.7671 0H19.3485V3.12802H14.9375V6.25602H19.3485V9.38405H11.7671V0Z" fill="white"/>
<path d="M20.8647 0H28.4461V2.72002H24.0351V3.26401H28.4461V9.52004H20.8647V6.66402H25.2756V6.12003H20.8647V0Z" fill="white"/>
<path d="M29.9623 0H37.5438V2.72002H33.1328V3.26401H37.5438V9.52004H29.9623V6.66402H34.3733V6.12003H29.9623V0Z" fill="white"/>
<path d="M32.6894 42.6528L31.9629 50.6626L24.9816 52.5215V58.9467L37.8139 55.438L37.908 54.3944L39.379 38.1355L39.5317 36.4771L40.6616 23.9769H24.9816V30.1529H33.8019L33.2323 36.4771H24.9816V42.6528H32.6894Z" fill="white"/>
</svg>
