<svg width="32" height="32" viewBox="0 0 32 32" xmlns="http://www.w3.org/2000/svg">
<path d="M31 16C31 24.2842 24.2843 31 16 31C7.71572 31 1 24.2842 1 16C1 7.71572 7.71572 1 16 1C24.2842 1 31 7.71572 31 16Z" stroke="white"/>
<path d="M19.5406 13.2547H16.9725V11.5705C16.9725 10.9379 17.3918 10.7904 17.687 10.7904C17.9816 10.7904 19.4993 10.7904 19.4993 10.7904V8.00975L17.0035 8C14.2328 8 13.6023 10.0739 13.6023 11.4012V13.2548H12V16.1202H13.6023C13.6023 19.7974 13.6023 24.2282 13.6023 24.2282H16.9726C16.9726 24.2282 16.9726 19.7538 16.9726 16.1202H19.2468L19.5406 13.2547Z" fill="white"/>
</svg>
