<svg width="50" height="56" viewBox="0 0 50 56" xmlns="http://www.w3.org/2000/svg">
<path d="M4.55325 42.2459L2.49081 41.0712L25.4665 1.80884L27.5291 2.98368L4.55325 42.2459Z" fill="#F000A2"/>
<path d="M2.01898 37.9347H47.9705V40.2845H2.01898V37.9347Z" fill="#F000A2"/>
<path d="M25.9104 52.3484L2.92606 39.2551L4.11683 37.2203L27.1012 50.3133L25.9104 52.3484ZM45.8767 18.2243L22.8926 5.1312L24.0832 3.09631L47.0676 16.1894L45.8767 18.2243Z" fill="#F000A2"/>
<path d="M4.12412 18.2141L2.93338 16.1794L25.9178 3.0863L27.1084 5.12119L4.12412 18.2141Z" fill="#F000A2"/>
<path d="M45.4548 42.247L22.479 2.98465L24.5414 1.80981L47.5171 41.0721L45.4548 42.247ZM3.84045 14.6222H6.22196V40.8084H3.84045V14.6222ZM43.7808 14.6222H46.1623V40.8084H43.7808V14.6222Z" fill="#F000A2"/>
<path d="M25.5056 51.3534L24.4655 49.5757L44.4558 38.1882L45.4959 39.9657L25.5056 51.3534Z" fill="#F000A2"/>
<path d="M49.3172 41.5723C47.9398 43.9362 44.8697 44.7429 42.4738 43.3841C40.0781 42.0252 39.2603 38.9961 40.6375 36.6324C42.0148 34.2685 45.0849 33.4617 47.4808 34.8206C49.8909 36.1936 50.7087 39.2084 49.3172 41.5723ZM9.3481 18.7973C7.97086 21.1612 4.90073 21.9681 2.50488 20.6092C0.109042 19.2504 -0.708701 16.2213 0.66855 13.8574C2.04579 11.4936 5.11592 10.6868 7.51177 12.0456C9.90762 13.4186 10.7254 16.4336 9.3481 18.7973ZM0.682897 41.5723C-0.694354 39.2084 0.123389 36.1936 2.51923 34.8206C4.91508 33.4617 7.97086 34.2685 9.36245 36.6324C10.7397 38.9961 9.92197 42.0111 7.52612 43.3841C5.11592 44.7429 2.06016 43.9362 0.682897 41.5723ZM40.6519 18.7973C39.2747 16.4336 40.0923 13.4186 42.4882 12.0456C44.8842 10.6868 47.9398 11.4936 49.3314 13.8574C50.7087 16.2213 49.8909 19.2362 47.495 20.6092C45.0993 21.9681 42.0291 21.1612 40.6519 18.7973ZM25 55.4298C22.2311 55.4298 19.9931 53.2216 19.9931 50.4899C19.9931 47.7579 22.2311 45.5498 25 45.5498C27.7688 45.5498 30.0068 47.7579 30.0068 50.4899C30.0068 53.2074 27.7688 55.4298 25 55.4298ZM25 9.87997C22.2311 9.87997 19.9931 7.67185 19.9931 4.93999C19.9931 2.20814 22.2311 0 25 0C27.7688 0 30.0068 2.20814 30.0068 4.93999C30.0068 7.67185 27.7688 9.87997 25 9.87997Z" fill="#F000A2"/>
</svg>
