<svg width="32" height="32" viewBox="0 0 32 32" xmlns="http://www.w3.org/2000/svg">
<path d="M31 16C31 24.2842 24.2843 31 16 31C7.71572 31 1 24.2842 1 16C1 7.71572 7.71572 1 16 1C24.2842 1 31 7.71572 31 16Z" stroke="white"/>
<path d="M23.9287 10.516C23.7153 9.96621 23.4307 9.50062 22.9651 9.03496C22.4995 8.5693 22.0339 8.28478 21.4841 8.07131C20.9539 7.86442 20.3395 7.72213 19.4535 7.68334C18.561 7.6445 18.2766 7.63159 16.0001 7.63159C13.7236 7.63159 13.4391 7.63799 12.5466 7.68334C11.6542 7.72213 11.0462 7.86442 10.5159 8.07131C9.96623 8.28478 9.50057 8.5693 9.03497 9.03496C8.56931 9.50062 8.28479 9.96621 8.07139 10.516C7.86437 11.0462 7.72214 11.6606 7.6833 12.5466C7.64451 13.439 7.63155 13.7236 7.63155 16C7.63155 18.2764 7.63794 18.561 7.6833 19.4534C7.72214 20.3459 7.86437 20.9539 8.07139 21.4841C8.28479 22.0339 8.56931 22.4995 9.03497 22.9651C9.50057 23.4307 9.96623 23.7152 10.5159 23.9287C11.0462 24.1357 11.6606 24.2778 12.5466 24.3167C13.439 24.3554 13.7236 24.3684 16.0001 24.3684C18.2765 24.3684 18.561 24.362 19.4535 24.3167C20.3459 24.2778 20.9539 24.1357 21.4841 23.9287C22.0339 23.7152 22.4995 23.4307 22.9651 22.9651C23.4307 22.4995 23.7153 22.0339 23.9287 21.4841C24.1357 20.9539 24.278 20.3395 24.3167 19.4534C24.3554 18.561 24.3684 18.2765 24.3684 16C24.3684 13.7236 24.362 13.439 24.3167 12.5466C24.278 11.6541 24.1357 11.0462 23.9287 10.516ZM22.8099 19.3824C22.7711 20.1972 22.6353 20.6435 22.5188 20.9344C22.37 21.3224 22.1826 21.6071 21.8916 21.8981C21.6005 22.1891 21.3224 22.3701 20.9279 22.5253C20.6304 22.6418 20.1906 22.7776 19.3758 22.8163C18.4899 22.8552 18.2312 22.8681 15.9935 22.8681C13.756 22.8681 13.4908 22.8617 12.6112 22.8163C11.7963 22.7776 11.3501 22.6418 11.0591 22.5253C10.6711 22.3767 10.3865 22.1891 10.0954 21.8981C9.80451 21.6071 9.62344 21.3291 9.46818 20.9344C9.35177 20.6369 9.21599 20.1972 9.17714 19.3824C9.13836 18.4964 9.12539 18.2313 9.12539 16C9.12539 13.769 9.1319 13.4972 9.17714 12.6177C9.21599 11.8029 9.35177 11.3566 9.46818 11.0656C9.61692 10.6775 9.80451 10.3931 10.0954 10.102C10.3865 9.81095 10.6646 9.62988 11.0591 9.47462C11.3566 9.35826 11.7963 9.22243 12.6112 9.18364C13.4972 9.1448 13.7624 9.13189 15.9935 9.13189C18.2247 9.13189 18.4963 9.13834 19.3758 9.18364C20.1906 9.22243 20.6368 9.35826 20.9279 9.47462C21.3159 9.62342 21.6005 9.81095 21.8916 10.102C22.1826 10.393 22.3636 10.671 22.5188 11.0656C22.6353 11.3631 22.7711 11.8029 22.8099 12.6177C22.8487 13.5037 22.8616 13.769 22.8616 16C22.8616 18.2313 22.8487 18.5028 22.8099 19.3824Z" fill="white"/>
<path d="M15.9935 11.6995C13.6201 11.6995 11.6929 13.6266 11.6929 16C11.6929 18.3734 13.6201 20.3007 15.9935 20.3007C18.3669 20.3007 20.2941 18.3734 20.2941 16C20.2941 13.6266 18.3669 11.6995 15.9935 11.6995ZM15.9935 18.7939C14.4543 18.7939 13.1998 17.5457 13.1998 16.0001C13.1998 14.4609 14.4479 13.2063 15.9935 13.2063C17.5391 13.2063 18.7874 14.4545 18.7874 16.0001C18.7874 17.5392 17.5326 18.7939 15.9935 18.7939Z" fill="white"/>
<path d="M20.4624 12.5337C21.016 12.5337 21.4648 12.0849 21.4648 11.5312C21.4648 10.9776 21.016 10.5288 20.4624 10.5288C19.9087 10.5288 19.4599 10.9776 19.4599 11.5312C19.4599 12.0849 19.9087 12.5337 20.4624 12.5337Z" fill="white"/>
</svg>
