<svg width="50" height="50" viewBox="0 0 50 50" xmlns="http://www.w3.org/2000/svg">
<path d="M49.858 18.0997C48.9755 14.853 44.0148 12.8655 37.1727 12.6277C36.905 5.88847 34.8825 1.00477 31.5848 0.141235C30.823 -0.0643958 30.004 -0.0407769 29.1628 0.181403L29.7683 2.40921C30.2345 2.28607 30.634 2.27695 30.9942 2.36379C32.5842 2.77898 33.9885 5.58812 34.5597 9.52751C34.7035 10.496 34.7898 11.5332 34.8412 12.6011C32.7247 12.6463 30.4555 12.8495 28.1103 13.212C26.2398 11.7252 24.365 10.4216 22.537 9.33049C25.0178 5.43082 27.668 2.95334 29.7758 2.39655L29.1703 0.168735C26.3835 0.904871 23.2675 3.82661 20.5022 8.19765C15.8956 5.79535 11.7207 4.82093 8.93394 5.55706L9.53946 7.78488C11.6371 7.23076 15.1962 8.05735 19.3172 10.1917C18.2975 12.0351 17.3323 14.0782 16.4868 16.2824C14.2618 17.1271 12.1936 18.0696 10.3405 19.0837C9.83588 18.1463 9.40021 17.2228 9.02608 16.3258C7.51255 12.6354 7.29385 9.51304 8.4474 8.36244C8.70253 8.10231 9.07603 7.91801 9.54218 7.79486L8.93666 5.56706C8.08543 5.79191 7.36413 6.17517 6.7985 6.73147C4.3908 9.10207 5.12361 14.3158 8.31451 20.2614C2.53268 23.8446 -0.737885 27.9955 0.141882 31.2324C1.02436 34.4792 5.98511 36.4667 12.8272 36.7044C13.0949 43.4437 15.1174 48.3274 18.415 49.191C19.1768 49.3966 19.996 49.373 20.8472 49.1481C23.634 48.4121 26.7498 45.4903 29.5153 41.1192C34.1218 43.5215 38.2967 44.4959 41.0835 43.7597C41.9347 43.5349 42.656 43.1516 43.2217 42.5953C45.6293 40.2248 44.8965 35.011 41.7057 29.0654C47.47 25.4977 50.7378 21.3366 49.858 18.0997ZM34.8528 14.9216C34.828 16.3094 34.723 17.7611 34.5573 19.2291C33.9245 18.5396 33.2715 17.8555 32.578 17.1821C31.8947 16.506 31.1863 15.858 30.4835 15.2299C31.9795 15.0596 33.4383 14.9526 34.8528 14.9216ZM33.1033 26.7871C32.6795 28.3447 32.2163 29.8374 31.6983 31.2485C30.2237 31.7772 28.7125 32.2514 27.1722 32.6582C25.642 33.0624 24.0928 33.3967 22.5605 33.673C21.3962 32.7064 20.2305 31.6545 19.0762 30.5246C17.9503 29.4193 16.89 28.2753 15.8877 27.1053C16.1522 25.6006 16.4977 24.0745 16.902 22.5651C17.3258 21.0075 17.789 19.5147 18.307 18.1037C19.7817 17.575 21.2928 17.1008 22.8332 16.6939C24.3633 16.2897 25.9125 15.9555 27.4448 15.6792C28.6092 16.6457 29.7748 17.6977 30.929 18.8277C32.055 19.9329 33.1153 21.0769 34.1177 22.2469C33.843 23.7543 33.5077 25.2777 33.1033 26.7871ZM36.0235 24.6237C36.9347 25.8179 37.7647 27.0334 38.5027 28.2305C37.262 28.9008 35.937 29.54 34.5448 30.1326C34.8323 29.2321 35.1143 28.3118 35.3605 27.3794C35.6095 26.457 35.8253 25.5327 36.0235 24.6237ZM28.6452 37.9976C27.442 37.2875 26.2092 36.4675 24.9592 35.545C25.882 35.344 26.8225 35.1276 27.7648 34.8787C28.7175 34.6271 29.6545 34.3582 30.563 34.0647C29.9687 35.4744 29.3168 36.7923 28.6452 37.9976ZM19.5063 34.105C18.0103 34.2753 16.5513 34.3824 15.137 34.4133C15.1617 33.0256 15.2667 31.5738 15.4325 30.1058C16.0652 30.7953 16.7182 31.4794 17.4117 32.1527C18.1052 32.8261 18.8035 33.477 19.5063 34.105ZM21.3447 11.3373C22.5477 12.0474 23.7807 12.8673 25.0307 13.7899C24.1078 13.9909 23.1673 14.2072 22.2248 14.4561C21.2723 14.7078 20.3353 14.9767 19.4267 15.2702C20.021 13.8605 20.673 12.5426 21.3447 11.3373ZM15.4449 19.2023C15.1575 20.1028 14.8754 21.0231 14.6292 21.9555C14.3803 22.8778 14.1618 23.7921 13.9635 24.7012C13.0524 23.507 12.2224 22.2915 11.4843 21.0945C12.7277 20.4341 14.0528 19.7949 15.4449 19.2023ZM9.6735 34.1326C5.67615 33.5717 2.81788 32.2067 2.39156 30.6381C1.96526 29.0697 3.74555 26.4687 6.9256 24.0225C7.69663 23.4226 8.55958 22.8413 9.45838 22.2721C10.5682 24.0776 11.8822 25.9147 13.3921 27.7538C13.0246 30.078 12.8259 32.304 12.7879 34.4021C11.7005 34.3574 10.6556 34.2694 9.6735 34.1326ZM19.0057 46.9684C17.4157 46.5532 16.0113 43.7441 15.4402 39.8046C15.2964 38.8362 15.21 37.799 15.1587 36.7311C17.2753 36.6859 19.5443 36.4828 21.8897 36.1202C23.76 37.607 25.635 38.9106 27.463 40.0016C24.982 43.9013 22.3318 46.3789 20.224 46.9357C19.7653 47.0461 19.3558 47.0579 19.0057 46.9684ZM40.9738 33.0064C42.4873 36.6969 42.706 39.8191 41.5525 40.9697C41.2973 41.2298 40.9238 41.4142 40.4577 41.5373C38.36 42.0915 34.801 41.2648 30.68 39.1304C31.6997 37.2872 32.6648 35.244 33.5103 33.0399C35.7353 32.1952 37.8035 31.2526 39.6567 30.2385C40.164 31.1858 40.6098 32.1067 40.9738 33.0064ZM43.0642 25.3124C42.2932 25.9123 41.4302 26.4936 40.5313 27.0628C39.4215 25.2573 38.1077 23.4202 36.5977 21.5811C36.9652 19.2569 37.1638 17.0309 37.2018 14.9328C38.2893 14.9775 39.3342 15.0655 40.3263 15.1996C44.3238 15.7605 47.182 17.1256 47.6083 18.694C48.0245 20.2652 46.2442 22.8662 43.0642 25.3124Z" fill="#61DAFB"/>
<path d="M26.5704 29.2339C29.1281 28.5582 30.6461 25.9665 29.9607 23.4452C29.2754 20.9236 26.6464 19.4272 24.0886 20.1029C21.5309 20.7786 20.0131 23.3703 20.6984 25.8917C21.3837 28.4132 24.0127 29.9096 26.5704 29.2339Z" fill="#61DAFB"/>
</svg>
