<svg width="50" height="50" viewBox="0 0 50 50" xmlns="http://www.w3.org/2000/svg">
<path d="M49.1625 15.6676H8.45053V47.1687H49.1625V15.6676Z" fill="#4E78C4"/>
<path fill-rule="evenodd" clip-rule="evenodd" d="M1.875 0H48.125C49.1606 0 50 0.828249 50 1.84995V47.482C50 48.5037 49.1606 49.3319 48.125 49.3319H1.875C0.839466 49.3319 0 48.5037 0 47.482V1.84995C0 0.828249 0.839466 0 1.875 0ZM27.7947 26.2454V22.1994H10V26.2454H16.353V44.2603H21.4106V26.2454H27.7947ZM29.811 43.7846C30.6266 44.1948 31.5912 44.5025 32.7048 44.7076C33.8183 44.9128 34.992 45.0154 36.2258 45.0154C37.4283 45.0154 38.5705 44.9024 39.6528 44.677C40.7349 44.4514 41.6839 44.0794 42.4993 43.5614C43.3149 43.0434 43.9606 42.3666 44.4364 41.5306C44.9121 40.6947 45.15 39.6614 45.15 38.4306C45.15 37.5382 45.014 36.7562 44.7422 36.0843C44.4704 35.4126 44.0784 34.815 43.5658 34.292C43.0536 33.7689 42.4393 33.2996 41.723 32.8843C41.0067 32.469 40.1992 32.0766 39.2999 31.7073C38.641 31.4406 38.0504 31.1816 37.5276 30.9303C37.0047 30.6792 36.5603 30.4227 36.1944 30.1612C35.8284 29.8996 35.5462 29.6227 35.3475 29.3303C35.1489 29.0381 35.0496 28.7072 35.0496 28.3379C35.0496 27.9995 35.1384 27.6945 35.3161 27.4226C35.4939 27.1508 35.7448 26.9175 36.0689 26.7226C36.3932 26.5278 36.7903 26.3765 37.2609 26.2688C37.7314 26.1611 38.2543 26.1073 38.8293 26.1073C39.2476 26.1073 39.6893 26.138 40.1546 26.1994C40.62 26.261 41.0878 26.3559 41.5583 26.484C42.0289 26.6123 42.4865 26.7738 42.9308 26.9688C43.3751 27.1636 43.7855 27.3893 44.1619 27.6456V23.0456C43.3986 22.7583 42.5648 22.5455 41.6602 22.4071C40.7558 22.2686 39.7181 22.1994 38.547 22.1994C37.3551 22.1994 36.2258 22.325 35.1593 22.5764C34.0928 22.8275 33.1543 23.2201 32.344 23.7533C31.5336 24.2866 30.8932 24.9661 30.4227 25.7917C29.9521 26.6174 29.717 27.6047 29.717 28.7533C29.717 30.2203 30.1481 31.4715 31.0109 32.5073C31.8735 33.5433 33.1831 34.4202 34.9398 35.1382C35.6299 35.4152 36.2728 35.6869 36.8689 35.9536C37.4648 36.2203 37.9798 36.4972 38.4136 36.7844C38.8475 37.0716 39.1901 37.3842 39.441 37.7228C39.6921 38.0612 39.8175 38.4459 39.8175 38.8769C39.8175 39.1947 39.7389 39.4897 39.5821 39.7614C39.4252 40.0332 39.1874 40.2692 38.8684 40.4691C38.5496 40.6691 38.1525 40.8256 37.6766 40.9383C37.2009 41.0512 36.644 41.1075 36.0063 41.1075C34.9187 41.1075 33.8418 40.9205 32.7753 40.5461C31.7089 40.1718 30.7207 39.6101 29.811 38.8614V43.7846Z" fill="white"/>
</svg>
