<svg width="50" height="50" viewBox="0 0 50 50" xmlns="http://www.w3.org/2000/svg">
<path d="M50 5C50 2.23858 47.7614 0 45 0H5C2.23858 0 0 2.23858 0 5V45C0 47.7614 2.23858 50 5 50H45C47.7614 50 50 47.7614 50 45V5Z" fill="#FCBA28"/>
<path d="M33.9281 39.0626C34.9353 40.7071 36.2455 41.9157 38.563 41.9157C40.5098 41.9157 41.7535 40.9427 41.7535 39.5982C41.7535 37.9872 40.4756 37.4166 38.3328 36.4792L37.1583 35.9752C33.7678 34.5309 31.5155 32.7214 31.5155 28.8959C31.5155 25.3721 34.2003 22.6896 38.3963 22.6896C41.3836 22.6896 43.5313 23.7292 45.0788 26.4516L41.4201 28.8007C40.6146 27.3562 39.7455 26.7872 38.3963 26.7872C37.0201 26.7872 36.148 27.6602 36.148 28.8007C36.148 30.2102 37.021 30.7809 39.0368 31.6539L40.2115 32.1571C44.2035 33.8689 46.4575 35.6142 46.4575 39.5381C46.4575 43.7682 43.1345 46.0856 38.6718 46.0856C34.3083 46.0856 31.4891 44.0062 30.1098 41.2809L33.9281 39.0626ZM17.3305 39.4697C18.0686 40.7792 18.74 41.8864 20.3543 41.8864C21.898 41.8864 22.8718 41.2824 22.8718 38.9341V22.9579H27.5701V38.9976C27.5701 43.8626 24.7178 46.0769 20.5543 46.0769C16.7923 46.0769 14.6138 44.1301 13.5059 41.7852L17.3305 39.4697Z" fill="#1D1A1D"/>
</svg>
