<svg width="75" height="33" viewBox="0 0 75 33" xmlns="http://www.w3.org/2000/svg">
<path d="M22.696 4.72034C23.1143 4.72034 23.4828 4.99286 23.5988 5.39041C23.9027 6.43191 24.2267 7.58271 24.5709 8.84279C25.0206 10.3499 25.4853 11.9161 25.965 13.5415L27.494 18.4175C27.7129 19.1156 27.929 19.7918 28.1424 20.4463C28.4148 21.2818 29.5758 21.2936 29.8575 20.4611C30.092 19.7682 30.3234 19.0574 30.5519 18.3289C31.0615 16.7035 31.5562 15.0782 32.0359 13.4529C32.5156 11.8275 32.9503 10.2613 33.3401 8.75417C33.6808 7.53058 33.9919 6.41411 34.2734 5.40478C34.3862 5.00044 34.7581 4.72038 35.1821 4.72038H39.7398C40.1581 4.72038 40.5266 4.9929 40.6426 5.39045C40.9465 6.43195 41.2705 7.58275 41.6147 8.84282C42.0644 10.35 42.5291 11.9162 43.0088 13.5415L44.5378 18.4175C44.7457 19.0806 44.9512 19.7241 45.1542 20.3478C45.4296 21.1942 46.6143 21.1941 46.8897 20.3478C47.0926 19.724 47.2981 19.0806 47.506 18.4175L49.035 13.5415C49.5147 11.9161 49.9794 10.3499 50.4291 8.84279C50.7733 7.58271 51.0973 6.43191 51.4012 5.39041C51.5172 4.99286 51.8857 4.72034 52.304 4.72034H56.8617C57.2857 4.72034 57.6576 5.0004 57.7704 5.40474C58.0519 6.41407 58.363 7.53054 58.7037 8.75413C59.0935 10.2613 59.5282 11.8275 60.0079 13.4528C60.4876 15.0782 60.9823 16.7035 61.4919 18.3288C61.6918 18.9663 61.894 19.5901 62.0985 20.2003C62.3869 21.0606 63.587 21.0118 63.8088 20.1325C63.9809 19.4502 64.153 18.7456 64.3251 18.0185C64.7148 16.2455 65.1046 14.4133 65.4943 12.522C65.8841 10.6307 66.2588 8.75413 66.6186 6.89238C66.9291 5.26001 67.2173 2.85715 67.4831 1.10882C67.5515 0.659232 67.9442 0.33194 68.4039 0.33194H74.056C74.6516 0.33194 75.0981 0.87084 74.9814 1.4485C73.987 6.37004 72.8633 12.1749 71.6103 17.0877C70.2929 22.1407 68.8798 26.9511 67.3709 31.5188C67.2446 31.9012 66.8835 32.159 66.4768 32.159H61.3863C60.9906 32.159 60.6368 31.9146 60.5023 31.5465C59.5343 28.8953 58.605 26.1295 57.7144 23.2492L55.7385 16.7976C55.4681 15.9148 54.2028 15.9143 53.93 16.7964C53.2648 18.9473 52.5925 21.0982 51.9132 23.2492C50.9238 26.3521 49.9045 29.322 48.8551 32.159H46.022L43.1887 32.159C42.1393 29.3221 41.12 26.3521 40.1306 23.2492C39.4513 21.0983 38.779 18.9473 38.1138 16.7964C37.841 15.9143 36.5757 15.9148 36.3053 16.7976L34.3294 23.2492C33.4388 26.1296 32.5095 28.8953 31.5415 31.5465C31.407 31.9147 31.0532 32.159 30.6574 32.159L26.8038 32.159C26.408 32.159 26.0542 31.9146 25.9196 31.5466C24.9495 28.8954 24.0052 26.1296 23.0868 23.2492C22.4075 21.0982 21.7352 18.9473 21.07 16.7964C20.7972 15.9143 19.5319 15.9148 19.2615 16.7976L17.2856 23.2492C16.395 26.1295 15.4657 28.8953 14.4977 31.5465C14.3632 31.9146 14.0094 32.159 13.6137 32.159H8.52316C8.11646 32.159 7.75545 31.9012 7.62913 31.5188C6.12022 26.9511 4.70706 22.1407 3.38966 17.0877C2.13668 12.1749 1.01301 6.37004 0.0186289 1.4485C-0.0980855 0.87084 0.348423 0.33194 0.943994 0.33194H6.59615C7.0558 0.33194 7.44851 0.659232 7.51687 1.10882C7.78272 2.85715 8.0709 5.26001 8.38141 6.89238C8.74118 8.75413 9.11593 10.6307 9.50568 12.522C9.89543 14.4133 10.2852 16.2455 10.6749 18.0185C10.847 18.7456 11.0191 19.4502 11.1912 20.1325C11.413 21.0118 12.6132 21.0606 12.9015 20.2003C13.106 19.5901 13.3082 18.9663 13.5081 18.3288C14.0177 16.7035 14.5124 15.0782 14.9921 13.4528C15.4718 11.8275 15.9065 10.2613 16.2963 8.75413C16.637 7.53054 16.9481 6.41407 17.2296 5.40474C17.3424 5.0004 17.7143 4.72034 18.1383 4.72034H22.696Z" fill="white"/>
</svg>
