<svg width="50" height="60" viewBox="0 0 50 60" xmlns="http://www.w3.org/2000/svg">
<path d="M46.8123 7.83267C41.2326 -0.0353141 30.2128 -2.36716 22.2458 2.63494L8.25359 11.423C6.3651 12.5919 4.74467 14.1362 3.49575 15.957C2.24681 17.7779 1.39682 19.8354 1.00002 21.9983C0.330927 25.6487 0.916192 29.4147 2.66319 32.7004C1.46587 34.4905 0.649978 36.5017 0.26501 38.6119C-0.13462 40.8226 -0.0818169 43.0895 0.420316 45.2798C0.922449 47.47 1.86379 49.5391 3.18896 51.3656C8.76864 59.2336 19.7885 61.5655 27.7555 56.5634L41.7477 47.8123C43.634 46.641 45.2528 45.0961 46.5013 43.2756C47.75 41.4552 48.6013 39.3989 49.0013 37.2371C49.6678 33.5879 49.0806 29.8237 47.3328 26.5402C48.5293 24.7492 49.347 22.7387 49.7361 20.6286C50.1347 18.4181 50.0812 16.1513 49.5792 13.9613C49.077 11.7712 48.1364 9.70202 46.8123 7.87498" fill="#FF3E00"/>
<path d="M20.8387 52.1268C18.6403 52.69 16.3198 52.574 14.1903 51.7938C12.0609 51.0137 10.225 49.6074 8.9305 47.7645C8.13566 46.6664 7.5713 45.4224 7.2706 44.1057C6.9699 42.7889 6.93898 41.4262 7.17962 40.0974C7.2586 39.6652 7.36956 39.2394 7.51158 38.823L7.77396 38.0299L8.49144 38.5588C10.1406 39.7477 11.9818 40.6524 13.9369 41.2342L14.4723 41.3877L14.4241 41.9163C14.3726 42.6413 14.579 43.3613 15.0078 43.9521C15.3984 44.5064 15.9516 44.9293 16.593 45.1639C17.2344 45.3984 17.9332 45.4331 18.5952 45.2634C18.8979 45.1831 19.1867 45.0584 19.4519 44.8932L33.3947 36.1052C33.7371 35.8925 34.0307 35.6113 34.2567 35.2798C34.4827 34.9485 34.6359 34.5739 34.7065 34.1805C34.7779 33.7797 34.7673 33.3687 34.6753 32.9718C34.5835 32.575 34.4119 32.2003 34.1711 31.8698C33.7805 31.3155 33.2273 30.8926 32.5859 30.6582C31.9445 30.4238 31.2457 30.3888 30.5837 30.5585C30.2807 30.6379 29.9917 30.7628 29.7269 30.9287L24.3725 34.2862C23.4969 34.8346 22.5417 35.2482 21.5401 35.513C19.3454 36.073 17.0295 35.9556 14.9044 35.1766C12.7792 34.3977 10.9466 32.9945 9.65334 31.156C8.8609 30.0569 8.29876 28.8126 7.99994 27.4958C7.7011 26.1792 7.6716 24.8171 7.91316 23.4891C8.14962 22.1855 8.6589 20.9451 9.40848 19.847C10.158 18.749 11.1314 17.8175 12.2663 17.1121L26.2519 8.32409C27.1225 7.77684 28.0721 7.36322 29.0683 7.09736C31.2661 6.53362 33.5859 6.64967 35.7145 7.42982C37.8433 8.20996 39.6781 9.61659 40.9713 11.4596C41.7669 12.5573 42.3323 13.8012 42.6339 15.1179C42.9355 16.4346 42.9673 17.7977 42.7275 19.1267C42.6439 19.5614 42.5331 19.9904 42.3955 20.4115L42.1277 21.2048L41.4157 20.676C39.7631 19.4779 37.9163 18.566 35.9541 17.9793L35.4187 17.826L35.4669 17.2972C35.5287 16.5686 35.3277 15.8419 34.8993 15.2456C34.5063 14.7007 33.9545 14.287 33.3175 14.0593C32.6805 13.8317 31.9885 13.801 31.3333 13.9713C31.0303 14.0506 30.7413 14.1755 30.4765 14.3414L16.507 23.1136C16.1658 23.3265 15.8731 23.6071 15.6473 23.9374C15.4215 24.2677 15.2675 24.6409 15.1952 25.033C15.1252 25.4347 15.1364 25.8463 15.2283 26.2438C15.3202 26.6414 15.4909 27.0169 15.7306 27.349C16.1194 27.8984 16.6682 28.3179 17.3042 28.5521C17.9401 28.7863 18.6331 28.824 19.2913 28.6602C19.5935 28.5787 19.8821 28.4542 20.1479 28.2902L25.5023 24.9378C26.3775 24.3834 27.3349 23.9678 28.3401 23.7057C30.5373 23.1408 32.8571 23.2556 34.9859 24.0349C37.1147 24.8141 38.9497 26.2201 40.2431 28.0627C41.0383 29.1609 41.6033 30.4046 41.9049 31.7212C42.2065 33.038 42.2385 34.4007 41.9993 35.7299C41.7629 37.0332 41.2535 38.2738 40.5039 39.3718C39.7543 40.4699 38.7811 41.4013 37.6461 42.1067L23.6765 50.8947C22.7991 51.4449 21.8423 51.8603 20.8387 52.1268Z" fill="white"/>
</svg>
