<svg width="32" height="32" viewBox="0 0 32 32" xmlns="http://www.w3.org/2000/svg">
<path d="M31 16C31 24.2842 24.2843 31 16 31C7.71572 31 1 24.2842 1 16C1 7.71572 7.71572 1 16 1C24.2842 1 31 7.71572 31 16Z" stroke="white"/>
<path d="M24 11.5403C23.4116 11.7935 22.7713 11.9757 22.1118 12.0467C22.7965 11.6409 23.3093 10.9997 23.5539 10.2436C22.9113 10.6249 22.2074 10.8923 21.4734 11.0339C21.1666 10.7067 20.7955 10.446 20.3833 10.2681C19.9711 10.0903 19.5266 9.99901 19.0775 10C17.2604 10 15.7991 11.4693 15.7991 13.2724C15.7991 13.5256 15.8298 13.7788 15.8798 14.0224C13.159 13.8805 10.7324 12.5838 9.1191 10.5984C8.8251 11.0993 8.6711 11.6696 8.673 12.25C8.673 13.3856 9.2518 14.3869 10.1344 14.9758C9.6142 14.9554 9.1063 14.8127 8.6518 14.5595V14.5998C8.6518 16.19 9.7786 17.5078 11.2804 17.8109C10.9984 17.884 10.7083 17.9214 10.417 17.9222C10.2036 17.9222 10.0017 17.9011 9.7979 17.8723C10.2132 19.169 11.4227 20.1109 12.8629 20.1415C11.7361 21.022 10.3247 21.5399 8.7922 21.5399C8.5172 21.5399 8.2634 21.5303 8 21.4996C9.4537 22.43 11.1785 22.9671 13.0359 22.9671C19.066 22.9671 22.3656 17.9836 22.3656 13.658C22.3656 13.516 22.3656 13.3741 22.356 13.2321C22.9944 12.766 23.5539 12.1886 24 11.5403Z" fill="white"/>
</svg>
